<mxfile host="Electron" modified="2023-05-12T19:24:57.724Z" agent="Mozilla/5.0 (Windows NT 10.0; Win64; x64) AppleWebKit/537.36 (KHTML, like Gecko) draw.io/21.2.8 Chrome/112.0.5615.165 Electron/24.2.0 Safari/537.36" etag="y9zez0pf036pthqTj3sn" version="21.2.8" type="device">
  <diagram id="C5RBs43oDa-KdzZeNtuy" name="Page-1">
    <mxGraphModel dx="1195" dy="703" grid="1" gridSize="10" guides="1" tooltips="1" connect="1" arrows="1" fold="1" page="1" pageScale="1" pageWidth="827" pageHeight="1169" math="0" shadow="0">
      <root>
        <mxCell id="WIyWlLk6GJQsqaUBKTNV-0" />
        <mxCell id="WIyWlLk6GJQsqaUBKTNV-1" parent="WIyWlLk6GJQsqaUBKTNV-0" />
        <mxCell id="3wKMR0ZYJV7lE7oxOlYn-0" value="Brightness&lt;br style=&quot;font-size: 14px;&quot;&gt;Image Filter" style="ellipse;whiteSpace=wrap;html=1;verticalAlign=top;fontSize=14;align=center;" vertex="1" parent="WIyWlLk6GJQsqaUBKTNV-1">
          <mxGeometry x="144" y="80" width="670" height="320" as="geometry" />
        </mxCell>
        <mxCell id="3wKMR0ZYJV7lE7oxOlYn-1" value="Contrast&lt;br style=&quot;font-size: 14px;&quot;&gt;Image&lt;br style=&quot;font-size: 14px;&quot;&gt;Filter" style="ellipse;whiteSpace=wrap;html=1;verticalAlign=top;fontSize=14;align=center;" vertex="1" parent="WIyWlLk6GJQsqaUBKTNV-1">
          <mxGeometry x="324" y="130" width="480" height="230" as="geometry" />
        </mxCell>
        <mxCell id="3wKMR0ZYJV7lE7oxOlYn-2" value="Saturation&lt;br style=&quot;font-size: 14px;&quot;&gt;Image&lt;br style=&quot;font-size: 14px;&quot;&gt;Filter" style="ellipse;whiteSpace=wrap;html=1;verticalAlign=top;fontSize=14;align=center;" vertex="1" parent="WIyWlLk6GJQsqaUBKTNV-1">
          <mxGeometry x="524" y="180" width="270" height="130" as="geometry" />
        </mxCell>
        <mxCell id="3wKMR0ZYJV7lE7oxOlYn-3" value="display()" style="rounded=1;whiteSpace=wrap;html=1;arcSize=13;fontSize=14;" vertex="1" parent="WIyWlLk6GJQsqaUBKTNV-1">
          <mxGeometry x="604" y="250" width="110" height="40" as="geometry" />
        </mxCell>
        <mxCell id="3wKMR0ZYJV7lE7oxOlYn-4" value="display()" style="rounded=1;whiteSpace=wrap;html=1;arcSize=13;fontSize=14;" vertex="1" parent="WIyWlLk6GJQsqaUBKTNV-1">
          <mxGeometry x="388" y="250" width="110" height="40" as="geometry" />
        </mxCell>
        <mxCell id="3wKMR0ZYJV7lE7oxOlYn-5" value="display()" style="rounded=1;whiteSpace=wrap;html=1;arcSize=13;fontSize=14;" vertex="1" parent="WIyWlLk6GJQsqaUBKTNV-1">
          <mxGeometry x="184" y="250" width="110" height="40" as="geometry" />
        </mxCell>
        <mxCell id="3wKMR0ZYJV7lE7oxOlYn-7" value="" style="curved=1;endArrow=classic;html=1;rounded=0;exitX=0.5;exitY=0;exitDx=0;exitDy=0;entryX=0.5;entryY=0;entryDx=0;entryDy=0;fillColor=#d5e8d4;strokeColor=#82b366;" edge="1" parent="WIyWlLk6GJQsqaUBKTNV-1" source="3wKMR0ZYJV7lE7oxOlYn-5" target="3wKMR0ZYJV7lE7oxOlYn-4">
          <mxGeometry width="50" height="50" relative="1" as="geometry">
            <mxPoint x="274" y="220" as="sourcePoint" />
            <mxPoint x="324" y="170" as="targetPoint" />
            <Array as="points">
              <mxPoint x="294" y="230" />
              <mxPoint x="334" y="230" />
              <mxPoint x="374" y="230" />
            </Array>
          </mxGeometry>
        </mxCell>
        <mxCell id="3wKMR0ZYJV7lE7oxOlYn-9" value="" style="curved=1;endArrow=classic;html=1;rounded=0;exitX=0.5;exitY=0;exitDx=0;exitDy=0;entryX=0.5;entryY=0;entryDx=0;entryDy=0;fillColor=#d5e8d4;strokeColor=#82b366;" edge="1" parent="WIyWlLk6GJQsqaUBKTNV-1" source="3wKMR0ZYJV7lE7oxOlYn-4" target="3wKMR0ZYJV7lE7oxOlYn-3">
          <mxGeometry width="50" height="50" relative="1" as="geometry">
            <mxPoint x="444" y="250" as="sourcePoint" />
            <mxPoint x="648" y="250" as="targetPoint" />
            <Array as="points">
              <mxPoint x="494" y="230" />
              <mxPoint x="574" y="230" />
              <mxPoint x="614" y="230" />
            </Array>
          </mxGeometry>
        </mxCell>
        <mxCell id="3wKMR0ZYJV7lE7oxOlYn-10" value="" style="curved=1;endArrow=classic;html=1;rounded=0;exitX=0.5;exitY=0;exitDx=0;exitDy=0;entryX=0.5;entryY=0;entryDx=0;entryDy=0;fillColor=#d5e8d4;strokeColor=#82b366;" edge="1" parent="WIyWlLk6GJQsqaUBKTNV-1">
          <mxGeometry width="50" height="50" relative="1" as="geometry">
            <mxPoint x="660" y="290" as="sourcePoint" />
            <mxPoint x="444" y="290" as="targetPoint" />
            <Array as="points">
              <mxPoint x="615" y="310" />
              <mxPoint x="575" y="310" />
              <mxPoint x="495" y="310" />
            </Array>
          </mxGeometry>
        </mxCell>
        <mxCell id="3wKMR0ZYJV7lE7oxOlYn-11" value="" style="curved=1;endArrow=classic;html=1;rounded=0;exitX=0.5;exitY=0;exitDx=0;exitDy=0;entryX=0.5;entryY=0;entryDx=0;entryDy=0;fillColor=#d5e8d4;strokeColor=#82b366;" edge="1" parent="WIyWlLk6GJQsqaUBKTNV-1">
          <mxGeometry width="50" height="50" relative="1" as="geometry">
            <mxPoint x="445" y="290" as="sourcePoint" />
            <mxPoint x="229" y="290" as="targetPoint" />
            <Array as="points">
              <mxPoint x="400" y="310" />
              <mxPoint x="360" y="310" />
              <mxPoint x="280" y="310" />
            </Array>
          </mxGeometry>
        </mxCell>
        <mxCell id="3wKMR0ZYJV7lE7oxOlYn-12" value="" style="curved=1;endArrow=classic;html=1;rounded=0;entryX=0.5;entryY=0;entryDx=0;entryDy=0;fillColor=#d5e8d4;strokeColor=#82b366;" edge="1" parent="WIyWlLk6GJQsqaUBKTNV-1">
          <mxGeometry width="50" height="50" relative="1" as="geometry">
            <mxPoint x="40" y="250" as="sourcePoint" />
            <mxPoint x="238" y="250" as="targetPoint" />
            <Array as="points">
              <mxPoint x="89" y="230" />
              <mxPoint x="129" y="230" />
              <mxPoint x="169" y="230" />
            </Array>
          </mxGeometry>
        </mxCell>
        <mxCell id="3wKMR0ZYJV7lE7oxOlYn-13" value="" style="curved=1;endArrow=classic;html=1;rounded=0;exitX=0.5;exitY=0;exitDx=0;exitDy=0;fillColor=#d5e8d4;strokeColor=#82b366;" edge="1" parent="WIyWlLk6GJQsqaUBKTNV-1">
          <mxGeometry width="50" height="50" relative="1" as="geometry">
            <mxPoint x="230" y="290" as="sourcePoint" />
            <mxPoint x="40" y="280" as="targetPoint" />
            <Array as="points">
              <mxPoint x="185" y="310" />
              <mxPoint x="145" y="310" />
              <mxPoint x="65" y="310" />
            </Array>
          </mxGeometry>
        </mxCell>
      </root>
    </mxGraphModel>
  </diagram>
</mxfile>
